PathFileType	4	(x/y/z)	S10_M20_T01
DataRate	CameraRate	NumFrames	NumMarkers	Units	OrigDataRate	OrigDataStartFrame	OrigNumFrames
240	240	5	51	mm	240	64	508
Frame#	Time	Sternum			R.Acromium			L.Acromium			Top.Head			R.ASIS			L.ASIS			R.PSIS			L.PSIS			R.Great.Tro			L.Great.Tro			R.Iliac.Crest			L.Iliac.Crest			V.Sacral			R.Thigh.Upper.Post			R.Thigh.Lower.Ant			R.Thigh.Lower.Post			R.Thigh.Upper.Ant			R.Knee.Lat			R.Knee.Med			R.Shank.Upper.Post			R.Shank.Lower.Ant			R.Shank.Lower.Post			R.Shank.Upper.Ant			R.Ankle.Lat			R.Ankle.Med			R.Heel.Upper			R.Heel.Med			R.Heel.Lat			R.Toe.Lat			R.Toe.Med			R.Toe.Tip			L.Thigh.Upper.Post			L.Thigh.Lower.Ant			L.Thigh.Lower.Post			L.Thigh.Upper.Ant			L.Knee.Lat			L.Knee.Med			L.Shank.Upper.Post			L.Shank.Lower.Ant			L.Shank.Lower.Post			L.Shank.Upper.Ant			L.Ankle.Lat			L.Ankle.Med			L.Heel.Upper			L.Heel.Med			L.Heel.Lat			L.Toe.Lat			L.Toe.Med			L.Toe.Tip			Cervical.Spine			Back			
		X1	Y1	Z1	X2	Y2	Z2	X3	Y3	Z3	X4	Y4	Z4	X5	Y5	Z5	X6	Y6	Z6	X7	Y7	Z7	X8	Y8	Z8	X9	Y9	Z9	X10	Y10	Z10	X11	Y11	Z11	X12	Y12	Z12	X13	Y13	Z13	X14	Y14	Z14	X15	Y15	Z15	X16	Y16	Z16	X17	Y17	Z17	X18	Y18	Z18	X19	Y19	Z19	X20	Y20	Z20	X21	Y21	Z21	X22	Y22	Z22	X23	Y23	Z23	X24	Y24	Z24	X25	Y25	Z25	X26	Y26	Z26	X27	Y27	Z27	X28	Y28	Z28	X29	Y29	Z29	X30	Y30	Z30	X31	Y31	Z31	X32	Y32	Z32	X33	Y33	Z33	X34	Y34	Z34	X35	Y35	Z35	X36	Y36	Z36	X37	Y37	Z37	X38	Y38	Z38	X39	Y39	Z39	X40	Y40	Z40	X41	Y41	Z41	X42	Y42	Z42	X43	Y43	Z43	X44	Y44	Z44	X45	Y45	Z45	X46	Y46	Z46	X47	Y47	Z47	X48	Y48	Z48	X49	Y49	Z49	X50	Y50	Z50	X51	Y51	Z51	

64	0.2625	-1171.3	1267.4	302.49	-1301.8	1432	435.88	-1281.7	1439.7	131.15	-1346.9	1739.9	287.7	-1245.1	992.51	410.49	NaN	NaN	NaN	-1433.1	1018.5	294.98	NaN	NaN	NaN	-1337	905.96	464.26	-1261	966.38	114.02	-1349.1	1075.8	442.39	-1284.2	1102.3	148.01	-1447.7	991.92	252.94	-1273.1	704.62	477.1	-1195	637.08	455.61	-1258.1	615.52	473.43	-1206.1	727.8	454.25	-1237.8	491.76	445.94	-1215.1	487.14	314.46	-1436.9	401.92	432.43	-1459.3	316.43	422	-1497.2	356.92	423.72	-1382.2	352.6	428.81	-1577.3	280.27	399.4	-1549.4	267.26	321.16	-1629.7	308.55	342.42	-1644.7	289.14	314.8	-1651	299.19	374.69	-1608.4	134.49	428.55	NaN	NaN	NaN	NaN	NaN	NaN	-1250.5	682.97	125.37	-1164	620.91	164.04	-1235.2	592.11	152.32	-1173.4	707.39	139.34	-1190.1	513.77	177.43	-1189.9	521.84	305.17	-1255.2	302.57	174.91	-1194.3	213.39	198.18	-1258	224.15	186.97	-1196.9	289.01	186.08	-1237.8	103.11	203.12	-1225.4	115.58	292.55	-1307.1	76.591	248.14	-1288.4	41.58	283.05	-1300.5	48.053	216.18	-1124.4	42.764	181.86	-1099.8	47.327	291.48	-1043.1	60.047	242.93	-1378.2	1492.2	286.67	-1461.5	1284.7	271.76
65	0.26667	-1166.7	1268.7	302.93	-1297.7	1433	436.03	-1276.6	1441.1	131.43	-1341.5	1741.1	287.98	-1240.1	993.9	410.3	NaN	NaN	NaN	-1428.4	1019.6	295.53	NaN	NaN	NaN	-1330.8	907.31	464.6	-1257.3	967.05	113.91	-1344.1	1077.2	442.51	-1279.8	1103.2	147.95	-1443.1	993.01	253.58	-1265.1	706.66	477.73	-1186.3	640.11	455.53	-1248.9	617.77	474.26	-1198.5	730.75	454.17	-1227.3	493.99	446.57	-1204.5	489.84	315.04	-1425.5	401.98	433.17	-1446.7	316.23	422.81	-1485.1	356.19	424.56	-1370.2	353.33	429.52	-1564.3	278.58	400.23	-1536.8	266	322.23	-1618.2	305.64	343.52	-1632.8	285.73	315.86	-1638.8	295.84	375.72	-1592.2	132.41	429.8	NaN	NaN	NaN	NaN	NaN	NaN	-1248.5	683.55	125.35	-1162.2	620.84	163.62	-1233.8	592.59	152.24	-1171.1	707.36	139.11	-1189.1	513.82	177.16	-1188.2	522.04	304.74	-1254.8	302.69	174.74	-1194.1	213.38	198.01	-1257.7	224.31	186.79	-1196.2	288.98	185.83	-1237.8	103.11	203.05	-1225.3	115.66	292.5	-1307.1	76.639	248.13	-1288.6	41.743	282.98	-1300.5	48.098	216.16	-1124.4	42.748	181.81	-1100	47.211	291.65	-1043.1	59.982	242.9	-1373.5	1493.3	286.62	-1456.7	1285.7	271.34
66	0.27083	-1162.2	1269.9	303.32	-1293.5	1434	436.18	-1271.4	1442.4	131.72	-1336.1	1742.4	288.28	-1235	995.26	410.07	NaN	NaN	NaN	-1423.6	1020.8	296.12	NaN	NaN	NaN	-1324.5	908.64	464.94	-1253.6	967.69	113.8	-1339	1078.5	442.65	-1275.4	1104	147.89	-1438.5	994.05	254.27	-1257.1	708.72	478.35	-1177.6	643.17	455.46	-1239.7	620.06	475.1	-1191	733.7	454.06	-1216.9	496.25	447.19	-1194.1	492.58	315.64	-1414.2	401.94	433.89	-1433.9	315.89	423.63	-1472.9	355.31	425.39	-1358.3	354	430.27	-1551.3	276.66	401.07	-1524.1	264.57	323.3	-1606.6	302.45	344.65	-1620.9	282.07	316.92	-1626.6	292.16	376.77	-1575.7	130.17	431.01	-1540.6	108.93	327.01	NaN	NaN	NaN	-1246.5	684.13	125.35	-1160.5	620.78	163.17	-1232.4	593.07	152.16	-1168.8	707.3	138.87	-1188	513.88	176.89	-1186.6	522.2	304.33	-1254.4	302.8	174.55	-1194	213.37	197.85	-1257.4	224.47	186.61	-1195.6	288.95	185.61	-1237.8	103.11	202.99	-1225.3	115.74	292.44	-1307.1	76.687	248.12	-1288.9	41.953	282.89	-1300.5	48.142	216.14	-1124.4	42.732	181.77	-1100.1	47.089	291.82	-1043.1	59.92	242.88	-1368.8	1494.3	286.58	-1451.9	1286.8	270.96
67	0.275	-1157.7	1271.2	303.66	-1289.2	1435	436.33	-1266.3	1443.8	132.02	-1330.7	1743.6	288.59	-1230	996.6	409.81	NaN	NaN	NaN	-1418.9	1021.9	296.74	NaN	NaN	NaN	-1318.1	909.96	465.28	-1250	968.31	113.67	-1333.9	1079.9	442.79	-1271.1	1104.8	147.82	-1434	995.06	254.99	-1249	710.79	478.96	-1169	646.25	455.38	-1230.6	622.39	475.96	-1183.5	736.66	453.95	-1206.6	498.54	447.81	-1183.8	495.35	316.24	-1402.9	401.8	434.59	-1421.2	315.41	424.45	-1460.6	354.27	426.22	-1346.4	354.62	431.03	-1538.1	274.53	401.92	-1511.4	262.96	324.36	-1594.9	298.99	345.8	-1608.8	278.15	318	-1614.4	288.17	377.86	-1559.1	127.8	432.2	-1525.5	107.28	327.82	NaN	NaN	NaN	-1244.4	684.7	125.36	-1158.7	620.72	162.7	-1231	593.54	152.09	-1166.6	707.24	138.63	-1187	513.95	176.61	-1185.2	522.32	303.94	-1254	302.91	174.35	-1193.8	213.36	197.7	-1257.1	224.62	186.43	-1195	288.92	185.39	-1237.8	103.1	202.92	-1225.3	115.82	292.39	-1307.1	76.738	248.11	-1289.3	42.203	282.77	-1300.5	48.183	216.13	-1124.4	42.717	181.73	-1100.3	46.965	292	-1043.1	59.863	242.85	-1364.1	1495.2	286.57	-1447.1	1287.8	270.61
68	0.27917	-1153.2	1272.4	303.97	-1285	1435.9	436.47	-1261.2	1445.2	132.32	-1325.3	1744.8	288.91	-1224.9	997.91	409.53	NaN	NaN	NaN	-1414.3	1023	297.39	NaN	NaN	NaN	-1311.6	911.26	465.62	-1246.4	968.91	113.54	-1328.8	1081.2	442.93	-1266.8	1105.6	147.74	-1429.5	996.02	255.73	-1241	712.87	479.56	-1160.5	649.35	455.31	-1221.5	624.75	476.82	-1176.1	739.61	453.81	-1196.5	500.85	448.43	-1173.7	498.14	316.85	-1391.7	401.56	435.27	-1408.3	314.79	425.26	-1448.4	353.08	427.05	-1334.6	355.19	431.83	-1524.9	272.19	402.77	-1498.5	261.17	325.41	-1583.1	295.27	346.98	-1596.6	273.99	319.09	-1602.1	283.86	378.97	-1542.3	125.31	433.37	-1509.7	105.54	328.68	NaN	NaN	NaN	-1242.4	685.26	125.39	-1156.9	620.67	162.2	-1229.7	594.02	152.03	-1164.4	707.15	138.38	-1186	514.01	176.34	-1184	522.39	303.57	-1253.6	303.03	174.14	-1193.6	213.36	197.56	-1256.8	224.77	186.25	-1194.3	288.9	185.19	-1237.7	103.1	202.86	-1225.3	115.89	292.35	-1307.1	76.79	248.1	-1289.7	42.488	282.64	-1300.5	48.223	216.12	-1124.4	42.702	181.69	-1100.5	46.843	292.18	-1043.1	59.809	242.83	-1359.3	1496.2	286.56	-1442.4	1288.7	270.29
